<?xml version="1.0" encoding="UTF-8"?>
<!-- Generator: Adobe Illustrator 25.0.0, SVG Export Plug-In . SVG Version: 6.00 Build 0)  -->
<svg xmlns="http://www.w3.org/2000/svg" xmlns:xlink="http://www.w3.org/1999/xlink" version="1.1" id="Layer_1" x="0px" y="0px" viewBox="0 0 558.2 108" style="enable-background:new 0 0 558.2 108;" xml:space="preserve">
<style type="text/css">
	.st0{fill:#202945;}
</style>
<g>
	<g>
		<path class="st0" d="M120,30.8c0,1.1,0.1,1.1,1.3,1.1h2.6c1.6,0,2.8-0.1,3.2-0.2c0.4-0.2,0.7-0.4,0.9-1.4l0.3-1.6    c0.2-0.2,0.8-0.2,1,0c0,1-0.2,2.5-0.2,4c0,1.4,0.2,2.9,0.2,3.8c-0.2,0.2-0.7,0.2-1,0l-0.4-1.5c-0.2-0.7-0.5-1.3-1.2-1.5    c-0.5-0.2-1.5-0.2-2.9-0.2h-2.6c-1.1,0-1.3,0-1.3,1.1v5.5c0,4.2,0.1,4.7,2.3,4.9l1.3,0.1c0.2,0.2,0.2,0.9-0.1,1    c-2.2-0.1-3.5-0.1-5.1-0.1c-1.7,0-3,0-4.7,0.1c-0.2-0.1-0.3-0.8-0.1-1l0.9-0.1c2.2-0.3,2.3-0.8,2.3-4.9V25.6c0-4.2-0.1-4.7-2.3-5    l-0.6-0.1c-0.2-0.2-0.2-0.9,0.1-1c1.6,0.1,2.9,0.1,4.4,0.1h7c2.4,0,4.6,0,5.1-0.1c0,1.8,0,3.7,0.1,5.2c-0.1,0.2-0.6,0.4-0.9,0.1    c-0.3-1.8-0.8-3.2-2.7-3.8c-0.8-0.2-2.1-0.2-3.7-0.2h-2.3c-1.1,0-1.1,0.1-1.1,1.6V30.8z"></path>
		<path class="st0" d="M133.1,35.5c0-6.3,4.6-11.2,10.8-11.2c7,0,10.5,5.3,10.5,10.9c0,6.4-4.7,11-10.5,11    C137.1,46.3,133.1,41.2,133.1,35.5z M151.4,36.2c0-5.2-2.2-10.9-8-10.9c-3.2,0-7.3,2.2-7.3,9.2c0,4.7,2.2,10.8,8.2,10.8    C147.9,45.3,151.4,42.4,151.4,36.2z"></path>
		<path class="st0" d="M173,32.8c0-2-0.1-5.6-0.6-6.6c-0.2-0.4-0.8-0.6-1.5-0.7l-0.8-0.1c-0.2-0.2-0.1-0.6,0.1-0.8    c1.2,0.1,2.3,0.1,3.5,0.1c1.3,0,2.1,0,3.2-0.1c0.2,0.2,0.2,0.6,0.1,0.8l-0.7,0.1c-0.8,0.1-1.3,0.3-1.5,0.8c-0.4,1-0.4,4.7-0.4,6.5    v3.6c0,2.8-0.4,5.7-2.1,7.6c-1.3,1.5-3.6,2.3-5.8,2.3c-2.1,0-4.2-0.4-5.7-1.7c-1.6-1.4-2.4-3.7-2.4-7.5v-7.5c0-3.3-0.1-3.8-1.8-4    l-0.8-0.1c-0.2-0.1-0.1-0.7,0.1-0.8c1.5,0.1,2.6,0.1,3.8,0.1c1.2,0,2.2,0,3.7-0.1c0.2,0.1,0.2,0.6,0.1,0.8l-0.7,0.1    c-1.8,0.2-1.8,0.7-1.8,4v6.8c0,5.1,1.5,8.4,6.2,8.4c4.4,0,6.1-3.6,6.1-8.4V32.8z"></path>
		<path class="st0" d="M198.1,40.4c0,0.9,0,4.7,0.1,5.5c-0.1,0.2-0.2,0.3-0.6,0.3c-0.4-0.5-1.2-1.6-3.9-4.8l-7.1-8.4    c-0.8-1-2.9-3.6-3.5-4.3h-0.1c-0.1,0.4-0.2,1.1-0.2,2.1v6.9c0,1.5,0,5.6,0.5,6.6c0.2,0.3,0.8,0.5,1.6,0.6l0.9,0.1    c0.2,0.3,0.2,0.6-0.1,0.8c-1.4-0.1-2.4-0.1-3.6-0.1c-1.3,0-2.1,0-3.2,0.1c-0.2-0.2-0.2-0.6-0.1-0.8L180,45    c0.7-0.1,1.2-0.3,1.3-0.6c0.4-1.1,0.4-5,0.4-6.5v-9.1c0-0.9,0-1.6-0.7-2.3c-0.4-0.4-1.2-0.7-1.9-0.8l-0.5-0.1    c-0.2-0.2-0.2-0.7,0.1-0.8c1.3,0.1,2.9,0.1,3.4,0.1c0.5,0,1,0,1.4-0.1c0.6,1.6,4.2,5.8,5.2,7l2.9,3.4c2.1,2.4,3.6,4.2,5,5.7h0.1    c0.1-0.2,0.1-0.7,0.1-1.3v-6.8c0-1.5,0-5.6-0.6-6.6c-0.2-0.3-0.7-0.5-1.9-0.6l-0.5-0.1c-0.2-0.2-0.2-0.7,0.1-0.8    c1.4,0.1,2.4,0.1,3.6,0.1c1.3,0,2.1,0,3.1-0.1c0.2,0.2,0.2,0.6,0.1,0.8l-0.4,0.1c-1,0.2-1.6,0.4-1.7,0.7c-0.5,1.1-0.5,5.1-0.5,6.5    V40.4z"></path>
		<path class="st0" d="M205.6,29c0-2.2-0.2-2.9-1.4-3.1l-0.7-0.1c-0.2-0.2-0.3-0.7,0-0.8c2.6-0.2,5-0.3,7.6-0.3    c2.6,0,4.7,0.2,6.7,0.9c4.1,1.6,6.2,5.2,6.2,9.3c0,4-1.9,7.5-5.3,9.4c-2,1.1-4.5,1.5-6.8,1.5c-1.9,0-3.9-0.3-5-0.3    c-1.3,0-2.4,0-3.8,0.1c-0.2-0.1-0.2-0.6-0.1-0.8l0.7-0.1c1.8-0.3,1.8-0.6,1.8-4V29z M208.1,40.3c0,1.7,0.1,2.7,0.6,3.4    c0.7,1,1.8,1.3,3.7,1.3c5.9,0,8.5-4,8.5-9.9c0-3.5-1.6-9.4-9.6-9.4c-1.8,0-2.8,0.3-3,0.4c-0.2,0.2-0.3,1-0.3,2.4V40.3z"></path>
		<path class="st0" d="M236.5,38.4c-0.2-0.7-0.3-0.8-1.2-0.8h-4.6c-0.8,0-0.9,0.1-1.2,0.8l-1.1,3.3c-0.5,1.4-0.7,2.3-0.7,2.6    c0,0.4,0.2,0.6,0.9,0.6l1,0.1c0.2,0.2,0.2,0.7-0.1,0.8c-0.8-0.1-1.7-0.1-3.2-0.1c-1,0-2.1,0.1-2.9,0.1c-0.2-0.1-0.2-0.6-0.1-0.8    l1-0.1c0.7-0.1,1.4-0.4,1.8-1.6c0.5-1.5,1.4-3.5,2.7-7.1l3.1-8.5c0.4-1.1,0.6-1.7,0.5-2.2c0.7-0.2,1.2-0.8,1.6-1.2    c0.2,0,0.4,0.1,0.5,0.3c0.4,1.4,0.9,2.8,1.3,4.2l4.2,12.7c0.9,2.7,1.3,3.2,2.6,3.4l0.8,0.1c0.2,0.2,0.2,0.7,0,0.8    c-1.2-0.1-2.3-0.1-3.7-0.1c-1.5,0-2.6,0.1-3.5,0.1c-0.2-0.1-0.3-0.6-0.1-0.8l0.9-0.1c0.6-0.1,1.1-0.3,1.1-0.6    c0-0.3-0.2-0.9-0.4-1.7L236.5,38.4z M230.5,35.6c-0.2,0.7-0.2,0.8,0.6,0.8h3.7c0.9,0,0.9-0.1,0.7-1l-1.6-5.2    c-0.2-0.8-0.5-1.6-0.7-2h-0.1c-0.1,0.2-0.4,0.9-0.7,1.9L230.5,35.6z"></path>
		<path class="st0" d="M252.2,41c0,3.3,0.1,3.8,1.8,4l1,0.1c0.2,0.1,0.1,0.7-0.1,0.8c-1.7-0.1-2.8-0.1-4-0.1s-2.3,0-4.2,0.1    c-0.2-0.1-0.2-0.6,0-0.8l1.1-0.1c1.7-0.2,1.9-0.6,1.9-4V26.9c0-1,0-1-0.9-1h-1.7c-1.3,0-3,0.1-3.7,0.8c-0.7,0.7-1,1.4-1.4,2.2    c-0.2,0.2-0.7,0-0.8-0.2c0.5-1.4,0.9-3.4,1.2-4.7c0.1-0.1,0.5-0.1,0.6,0c0.2,1,1.2,1,2.6,1h12.3c1.6,0,1.9-0.1,2.4-0.9    c0.2-0.1,0.5,0,0.5,0.1c-0.3,1.3-0.5,3.9-0.5,4.8c-0.1,0.3-0.6,0.3-0.8,0.1c-0.1-0.8-0.3-2-0.8-2.3c-0.7-0.5-1.9-0.8-3.5-0.8H253    c-0.9,0-0.9,0-0.9,1.1V41z"></path>
		<path class="st0" d="M265.5,29.7c0-3.4-0.1-3.9-1.9-4.1l-0.8-0.1c-0.2-0.1-0.1-0.7,0.1-0.8c1.5,0.1,2.6,0.1,3.8,0.1    c1.2,0,2.2,0,3.8-0.1c0.2,0.1,0.2,0.7,0.1,0.8l-0.8,0.1c-1.8,0.2-1.9,0.7-1.9,4.1v11.3c0,3.4,0.1,3.8,1.9,4l0.8,0.1    c0.2,0.1,0.1,0.7-0.1,0.8c-1.5-0.1-2.6-0.1-3.8-0.1c-1.3,0-2.3,0-3.8,0.1c-0.2-0.1-0.2-0.6-0.1-0.8l0.8-0.1c1.8-0.2,1.9-0.7,1.9-4    V29.7z"></path>
		<path class="st0" d="M272.1,35.5c0-6.3,4.6-11.2,10.8-11.2c7,0,10.5,5.3,10.5,10.9c0,6.4-4.7,11-10.5,11    C276.2,46.3,272.1,41.2,272.1,35.5z M290.4,36.2c0-5.2-2.2-10.9-8-10.9c-3.2,0-7.3,2.2-7.3,9.2c0,4.7,2.2,10.8,8.2,10.8    C287,45.3,290.4,42.4,290.4,36.2z"></path>
		<path class="st0" d="M313.9,40.4c0,0.9,0,4.7,0.1,5.5c-0.1,0.2-0.2,0.3-0.6,0.3c-0.4-0.5-1.2-1.6-3.9-4.8l-7.1-8.4    c-0.8-1-2.9-3.6-3.5-4.3h-0.1c-0.1,0.4-0.2,1.1-0.2,2.1v6.9c0,1.5,0,5.6,0.5,6.6c0.2,0.3,0.8,0.5,1.6,0.6l0.9,0.1    c0.2,0.3,0.2,0.6-0.1,0.8c-1.4-0.1-2.4-0.1-3.6-0.1c-1.3,0-2.1,0-3.2,0.1c-0.2-0.2-0.2-0.6-0.1-0.8l0.8-0.1    c0.7-0.1,1.2-0.3,1.3-0.6c0.4-1.1,0.4-5,0.4-6.5v-9.1c0-0.9,0-1.6-0.7-2.3c-0.4-0.4-1.2-0.7-1.9-0.8l-0.5-0.1    c-0.2-0.2-0.2-0.7,0.1-0.8c1.3,0.1,2.9,0.1,3.4,0.1c0.5,0,1,0,1.4-0.1c0.6,1.6,4.2,5.8,5.2,7l2.9,3.4c2.1,2.4,3.6,4.2,5,5.7h0.1    c0.1-0.2,0.1-0.7,0.1-1.3v-6.8c0-1.5,0-5.6-0.6-6.6c-0.2-0.3-0.7-0.5-1.9-0.6l-0.5-0.1c-0.2-0.2-0.2-0.7,0.1-0.8    c1.4,0.1,2.4,0.1,3.6,0.1c1.3,0,2.1,0,3.1-0.1c0.2,0.2,0.2,0.6,0.1,0.8l-0.4,0.1c-1,0.2-1.6,0.4-1.7,0.7c-0.5,1.1-0.5,5.1-0.5,6.5    V40.4z"></path>
		<path class="st0" d="M332,31.5c-0.2,0.5-0.4,1.6-0.8,2.9c-0.9,3.5-1.7,6.6-2.7,10.1c-0.8,2.8-1.8,4.5-2.4,5.1    c-0.5,0.4-1.9,1.7-3.6,1.7c-1.6,0-2.2-1.1-2.2-1.6c0-0.6,0.4-1.2,0.7-1.4c0.2-0.2,0.5-0.1,0.7,0.1c0.7,0.8,1.6,1.3,2.3,1.3    c0.6,0,1.2-0.2,1.9-2.7c1.4-5,2.5-10.4,3.9-15.6h-2.5c-0.3-0.3-0.2-0.9,0.2-1.2h2.6c0.8-2.8,1.6-5.3,3.4-7.5    c1.5-1.9,3.1-2.6,4.9-2.6c1.1,0,2.3,0.8,2.3,2.1c0,0.8-0.8,1.8-1.3,1.8c-0.3,0-0.4-0.3-0.4-0.5c-0.1-1.7-0.9-2.3-1.7-2.3    c-0.7,0-1.5,0.6-2.2,1.7c-1.4,2.1-2,4.4-2.8,7.4h3.8c0.2,0.3,0.2,0.8-0.3,1.2H332z"></path>
		<path class="st0" d="M345,33.9c-0.1,1.7-1,4.8-3.2,7.2c-1.9,2-3.5,2.2-4.3,2.2c-1.9,0-3.2-1.5-3-4.2c0.1-2,1.2-5,3.3-7.1    c1.6-1.6,2.9-2.1,4.2-2.1C344,29.9,345.1,31.5,345,33.9z M339.5,32.3c-1.8,2.5-2.9,6.2-3,7.9c-0.1,1.1,0.4,2,1.2,2    c0.7,0,1.4-0.3,2.4-1.6c1.3-1.9,2.8-6,2.8-7.7c0-1-0.2-2.1-1.2-2.1C341.1,30.8,340.3,31.1,339.5,32.3z"></path>
		<path class="st0" d="M351.7,32.9l-1.3,4h0.2c0.9-1.8,2.4-4.3,3.2-5.3c0.7-0.9,1.5-1.6,2.2-1.6c1.1,0,1.2,1.1,1.2,1.6    c0,0.5-0.3,1.4-0.6,1.9c-0.4,0.5-0.9,0.5-1-0.2c-0.2-0.8-0.3-1.2-0.6-1.2c-0.3,0-0.6,0.3-1.1,0.9c-1.9,2.5-3.6,6.3-5.2,10    c-0.1,0.3-0.3,0.4-0.5,0.4c-0.3,0-1.2-0.1-1-0.8c0.4-1.3,2.3-6.9,3.1-10c0.1-0.3,0-0.7-0.2-0.7c-0.8,0-1.6,0.9-2.2,1.6    c-0.3,0.1-0.5-0.1-0.5-0.5c1-1.7,2.1-3,3.6-3C352.6,29.9,352,32,351.7,32.9z"></path>
		<path class="st0" d="M369.7,22.4c2.8-2.3,6.3-3.4,10.3-3.4c2.1,0,4.9,0.4,6.7,0.9c0.5,0.1,0.7,0.2,1.1,0.2c0,0.9,0.2,3.4,0.5,5.8    c-0.2,0.3-0.8,0.3-1,0.1c-0.6-2.7-2.3-5.8-7.8-5.8c-5.8,0-10.8,3.8-10.8,12c0,8.3,5.1,12.9,11.3,12.9c4.9,0,7.1-3.3,7.9-5.7    c0.3-0.2,0.8-0.1,1,0.2c-0.3,2.1-1.3,4.7-1.8,5.4c-0.5,0.1-0.9,0.2-1.3,0.4c-0.8,0.3-3.6,0.9-6,0.9c-3.4,0-6.7-0.7-9.5-2.7    c-3-2.2-5.4-5.8-5.4-10.9C364.9,28.5,366.8,24.7,369.7,22.4z"></path>
		<path class="st0" d="M402.1,38.4c-0.2-0.7-0.3-0.8-1.2-0.8h-4.6c-0.8,0-0.9,0.1-1.2,0.8l-1.1,3.3c-0.5,1.4-0.7,2.3-0.7,2.6    c0,0.4,0.2,0.6,0.9,0.6l1,0.1c0.2,0.2,0.2,0.7-0.1,0.8c-0.8-0.1-1.7-0.1-3.2-0.1c-1,0-2.1,0.1-2.9,0.1c-0.2-0.1-0.2-0.6-0.1-0.8    l1-0.1c0.7-0.1,1.4-0.4,1.8-1.6c0.5-1.5,1.4-3.5,2.7-7.1l3.1-8.5c0.4-1.1,0.6-1.7,0.5-2.2c0.7-0.2,1.2-0.8,1.6-1.2    c0.2,0,0.4,0.1,0.5,0.3c0.4,1.4,0.9,2.8,1.3,4.2l4.2,12.7c0.9,2.7,1.3,3.2,2.6,3.4l0.8,0.1c0.2,0.2,0.2,0.7,0,0.8    c-1.2-0.1-2.3-0.1-3.7-0.1c-1.5,0-2.6,0.1-3.5,0.1c-0.2-0.1-0.3-0.6-0.1-0.8l0.9-0.1c0.6-0.1,1.1-0.3,1.1-0.6    c0-0.3-0.2-0.9-0.4-1.7L402.1,38.4z M396,35.6c-0.2,0.7-0.2,0.8,0.6,0.8h3.7c0.9,0,0.9-0.1,0.7-1l-1.6-5.2c-0.2-0.8-0.5-1.6-0.7-2    h-0.1c-0.1,0.2-0.4,0.9-0.7,1.9L396,35.6z"></path>
		<path class="st0" d="M412.5,29.6c0-3.3-0.1-3.8-2-4l-0.8-0.1c-0.2-0.1-0.1-0.7,0.1-0.8c1.7,0.1,2.7,0.1,4,0.1c1.2,0,2.2,0,3.7-0.1    c0.2,0.1,0.2,0.7,0.1,0.8l-0.7,0.1c-1.8,0.2-1.9,0.7-1.9,4v11c0,2,0.1,2.8,0.6,3.4c0.3,0.3,0.9,0.7,3.3,0.7c2.6,0,3.2-0.1,3.7-0.4    c0.6-0.4,1.4-1.5,2-3.1c0.2-0.2,0.8,0,0.8,0.2c0,0.3-0.9,3.6-1.3,4.4c-1.5-0.1-4.4-0.1-7.6-0.1h-2.8c-1.3,0-2.2,0-4,0.1    c-0.2-0.1-0.2-0.6-0.1-0.8l0.9-0.1c1.8-0.2,1.8-0.6,1.8-4V29.6z"></path>
		<path class="st0" d="M429.3,29.7c0-3.4-0.1-3.9-1.9-4.1l-0.8-0.1c-0.2-0.1-0.1-0.7,0.1-0.8c1.5,0.1,2.6,0.1,3.8,0.1    c1.2,0,2.2,0,3.8-0.1c0.2,0.1,0.2,0.7,0.1,0.8l-0.8,0.1c-1.8,0.2-1.9,0.7-1.9,4.1v11.3c0,3.4,0.1,3.8,1.9,4l0.8,0.1    c0.2,0.1,0.1,0.7-0.1,0.8c-1.5-0.1-2.6-0.1-3.8-0.1c-1.3,0-2.3,0-3.8,0.1c-0.2-0.1-0.2-0.6-0.1-0.8l0.8-0.1c1.8-0.2,1.9-0.7,1.9-4    V29.7z"></path>
		<path class="st0" d="M442.1,33.8c0,0.9,0.1,0.9,1,0.9h2.1c1.2,0,2.2-0.1,2.6-0.2c0.3-0.1,0.6-0.3,0.8-1.1l0.3-1.3    c0.2-0.2,0.7-0.2,0.8,0c0,0.8-0.1,2-0.1,3.2c0,1.1,0.1,2.3,0.1,3.1c-0.1,0.2-0.6,0.2-0.8,0l-0.3-1.2c-0.2-0.6-0.4-1-1-1.2    c-0.4-0.1-1.2-0.2-2.3-0.2h-2.1c-0.9,0-1,0-1,0.9V41c0,3.3,0.1,3.8,1.9,4l1,0.1c0.2,0.1,0.1,0.7-0.1,0.8c-1.8-0.1-2.8-0.1-4-0.1    c-1.3,0-2.4,0-3.8,0.1c-0.2-0.1-0.2-0.6-0.1-0.8l0.8-0.1c1.8-0.2,1.8-0.6,1.8-4V29.6c0-3.3-0.1-3.8-1.8-4l-0.5-0.1    c-0.2-0.1-0.1-0.7,0.1-0.8c1.3,0.1,2.3,0.1,3.5,0.1h5.6c1.9,0,3.7,0,4.1-0.1c0,1.5,0,3,0.1,4.2c-0.1,0.2-0.5,0.3-0.7,0.1    c-0.2-1.4-0.6-2.6-2.1-3c-0.7-0.2-1.7-0.2-2.9-0.2H443c-0.9,0-0.9,0.1-0.9,1.3V33.8z"></path>
		<path class="st0" d="M452.8,35.5c0-6.3,4.6-11.2,10.8-11.2c7,0,10.5,5.3,10.5,10.9c0,6.4-4.7,11-10.5,11    C456.9,46.3,452.8,41.2,452.8,35.5z M471.2,36.2c0-5.2-2.2-10.9-8-10.9c-3.2,0-7.3,2.2-7.3,9.2c0,4.7,2.2,10.8,8.2,10.8    C467.7,45.3,471.2,42.4,471.2,36.2z"></path>
		<path class="st0" d="M477.7,29.6c0-3-0.1-3.5-1.3-3.7l-1-0.1c-0.2-0.2-0.2-0.7,0-0.8c1.7-0.2,3.8-0.3,6.8-0.3    c1.9,0,3.7,0.2,5.1,0.9c1.5,0.8,2.5,2.2,2.5,4.4c0,3-2.3,4.7-3.8,5.3c-0.2,0.2,0,0.5,0.2,0.8c2.4,4.1,4,6.6,6.1,8.4    c0.5,0.5,1.3,0.8,2.1,0.9c0.2,0.1,0.2,0.3,0,0.4c-0.3,0.1-0.8,0.2-1.3,0.2c-2.6,0-4.1-0.8-6.3-4c-0.8-1.2-2-3.4-3-4.8    c-0.5-0.7-0.9-1-2.2-1c-1.4,0-1.4,0-1.4,0.7v4c0,3.3,0.1,3.7,1.8,4l0.6,0.1c0.2,0.2,0.1,0.7-0.1,0.8c-1.4-0.1-2.4-0.1-3.6-0.1    c-1.3,0-2.4,0-3.8,0.1c-0.2-0.1-0.2-0.6-0.1-0.8l0.8-0.1c1.8-0.2,1.8-0.6,1.8-4V29.6z M480.2,34.2c0,0.6,0,0.9,0.1,1    c0.1,0.1,0.5,0.2,2.1,0.2c1.1,0,2.2-0.1,3.1-0.8c0.8-0.7,1.5-1.8,1.5-3.9c0-2.5-1.5-4.9-4.9-4.9c-1.9,0-2,0.1-2,1V34.2z"></path>
		<path class="st0" d="M513.6,40.4c0,0.9,0,4.7,0.1,5.5c-0.1,0.2-0.2,0.3-0.6,0.3c-0.4-0.5-1.2-1.6-3.9-4.8l-7.1-8.4    c-0.8-1-2.9-3.6-3.5-4.3h-0.1c-0.1,0.4-0.2,1.1-0.2,2.1v6.9c0,1.5,0,5.6,0.5,6.6c0.2,0.3,0.8,0.5,1.6,0.6l0.9,0.1    c0.2,0.3,0.2,0.6-0.1,0.8c-1.4-0.1-2.4-0.1-3.6-0.1c-1.3,0-2.1,0-3.2,0.1c-0.2-0.2-0.2-0.6-0.1-0.8l0.8-0.1    c0.7-0.1,1.2-0.3,1.3-0.6c0.4-1.1,0.4-5,0.4-6.5v-9.1c0-0.9,0-1.6-0.7-2.3c-0.4-0.4-1.2-0.7-1.9-0.8l-0.5-0.1    c-0.2-0.2-0.2-0.7,0.1-0.8c1.3,0.1,2.9,0.1,3.4,0.1c0.5,0,1,0,1.4-0.1c0.6,1.6,4.2,5.8,5.2,7l2.9,3.4c2.1,2.4,3.6,4.2,5,5.7h0.1    c0.1-0.2,0.1-0.7,0.1-1.3v-6.8c0-1.5,0-5.6-0.6-6.6c-0.2-0.3-0.7-0.5-1.9-0.6l-0.5-0.1c-0.2-0.2-0.2-0.7,0.1-0.8    c1.4,0.1,2.4,0.1,3.6,0.1c1.3,0,2.1,0,3.1-0.1c0.2,0.2,0.2,0.6,0.1,0.8l-0.4,0.1c-1,0.2-1.6,0.4-1.7,0.7c-0.5,1.1-0.5,5.1-0.5,6.5    V40.4z"></path>
		<path class="st0" d="M521.1,29.7c0-3.4-0.1-3.9-1.9-4.1l-0.8-0.1c-0.2-0.1-0.1-0.7,0.1-0.8c1.5,0.1,2.6,0.1,3.8,0.1    c1.2,0,2.2,0,3.8-0.1c0.2,0.1,0.2,0.7,0.1,0.8l-0.8,0.1c-1.8,0.2-1.9,0.7-1.9,4.1v11.3c0,3.4,0.1,3.8,1.9,4l0.8,0.1    c0.2,0.1,0.1,0.7-0.1,0.8c-1.5-0.1-2.6-0.1-3.8-0.1c-1.3,0-2.3,0-3.8,0.1c-0.2-0.1-0.2-0.6-0.1-0.8l0.8-0.1c1.8-0.2,1.9-0.7,1.9-4    V29.7z"></path>
		<path class="st0" d="M539.8,38.4c-0.2-0.7-0.3-0.8-1.2-0.8H534c-0.8,0-0.9,0.1-1.2,0.8l-1.1,3.3c-0.5,1.4-0.7,2.3-0.7,2.6    c0,0.4,0.2,0.6,0.9,0.6l1,0.1c0.2,0.2,0.2,0.7-0.1,0.8c-0.8-0.1-1.7-0.1-3.2-0.1c-1,0-2.1,0.1-2.9,0.1c-0.2-0.1-0.2-0.6-0.1-0.8    l1-0.1c0.7-0.1,1.4-0.4,1.8-1.6c0.5-1.5,1.4-3.5,2.7-7.1l3.1-8.5c0.4-1.1,0.6-1.7,0.5-2.2c0.7-0.2,1.2-0.8,1.6-1.2    c0.2,0,0.4,0.1,0.5,0.3c0.4,1.4,0.9,2.8,1.3,4.2l4.2,12.7c0.9,2.7,1.3,3.2,2.6,3.4l0.8,0.1c0.2,0.2,0.2,0.7,0,0.8    c-1.2-0.1-2.3-0.1-3.7-0.1c-1.5,0-2.6,0.1-3.5,0.1c-0.2-0.1-0.3-0.6-0.1-0.8l0.9-0.1c0.6-0.1,1.1-0.3,1.1-0.6    c0-0.3-0.2-0.9-0.4-1.7L539.8,38.4z M533.8,35.6c-0.2,0.7-0.2,0.8,0.6,0.8h3.7c0.9,0,0.9-0.1,0.7-1l-1.6-5.2    c-0.2-0.8-0.5-1.6-0.7-2h-0.1c-0.1,0.2-0.4,0.9-0.7,1.9L533.8,35.6z"></path>
		<path class="st0" d="M118.4,63.7c2.8-2.3,6.3-3.4,10.3-3.4c2.1,0,4.9,0.4,6.7,1c0.5,0.1,0.7,0.2,1.1,0.2c0,0.9,0.2,3.4,0.5,5.8    c-0.2,0.3-0.8,0.3-1,0.1c-0.6-2.7-2.3-5.8-7.8-5.8c-5.8,0-10.8,3.8-10.8,12c0,8.3,5.1,12.9,11.3,12.9c4.9,0,7.1-3.3,7.9-5.7    c0.3-0.2,0.8-0.1,1,0.2c-0.3,2.1-1.3,4.7-1.8,5.4c-0.5,0.1-0.9,0.2-1.3,0.4c-0.8,0.3-3.6,0.9-6,0.9c-3.4,0-6.7-0.7-9.5-2.7    c-3-2.2-5.4-5.8-5.4-10.9C113.7,69.8,115.6,66.1,118.4,63.7z"></path>
		<path class="st0" d="M139.8,76.9c0-6.3,4.6-11.2,10.8-11.2c7,0,10.5,5.3,10.5,10.9c0,6.4-4.7,11-10.5,11    C143.9,87.6,139.8,82.6,139.8,76.9z M158.2,77.6c0-5.2-2.2-10.9-8-10.9c-3.2,0-7.3,2.2-7.3,9.2c0,4.7,2.2,10.8,8.2,10.8    C154.7,86.6,158.2,83.8,158.2,77.6z"></path>
		<path class="st0" d="M173.2,78.7c0.7,1.5,1.4,2.9,2.1,4.3h0.1c0.8-1.5,1.6-3.1,2.3-4.7l2.9-6c1.4-2.9,2.2-4.6,2.3-6.1    c1,0.1,1.7,0.1,2.3,0.1c0.8,0,1.8,0,2.7-0.1c0.2,0.1,0.2,0.7,0,0.8l-0.6,0.1c-1.9,0.2-2.2,0.8-2.1,3c0.1,3.4,0.1,9.2,0.3,13.8    c0.1,1.6,0.1,2.4,1.5,2.6l1,0.1c0.2,0.2,0.2,0.7-0.1,0.8c-1.2-0.1-2.5-0.1-3.6-0.1c-1.1,0-2.4,0-3.7,0.1c-0.2-0.2-0.2-0.6-0.1-0.8    l0.9-0.1c1.5-0.2,1.5-0.7,1.5-2.7l-0.1-13.2h-0.1c-0.2,0.3-1.4,2.9-2,4.1l-2.7,5.5c-1.4,2.8-2.7,5.8-3.3,7.2    c-0.1,0.1-0.2,0.1-0.3,0.1c-0.1,0-0.2,0-0.3-0.1c-0.5-1.7-2-4.8-2.7-6.3l-2.7-6.1c-0.6-1.5-1.3-3.1-1.9-4.6h-0.1    c-0.1,2-0.2,3.8-0.3,5.6c-0.1,1.9-0.2,4.7-0.2,7.4c0,2.3,0.2,2.8,1.4,2.9l1.2,0.1c0.2,0.2,0.2,0.7,0,0.8c-1-0.1-2.2-0.1-3.4-0.1    c-1,0-2.1,0-3.1,0.1c-0.2-0.2-0.2-0.6-0.1-0.8l0.7-0.1c1.3-0.2,1.7-0.4,1.9-2.6c0.2-2.1,0.3-3.8,0.5-7c0.2-2.6,0.3-5.3,0.3-7.1    c0.1-2-0.2-2.5-2-2.7l-0.5-0.1c-0.2-0.2-0.1-0.7,0.1-0.8c0.9,0.1,1.6,0.1,2.4,0.1c0.7,0,1.5,0,2.5-0.1c-0.1,1.2,0.6,3.2,1.6,5.2    L173.2,78.7z"></path>
		<path class="st0" d="M200.9,78.7c0.7,1.5,1.4,2.9,2.1,4.3h0.1c0.8-1.5,1.6-3.1,2.3-4.7l2.9-6c1.4-2.9,2.2-4.6,2.3-6.1    c1,0.1,1.7,0.1,2.3,0.1c0.8,0,1.8,0,2.7-0.1c0.2,0.1,0.2,0.7,0,0.8L215,67c-1.9,0.2-2.2,0.8-2.1,3c0.1,3.4,0.1,9.2,0.3,13.8    c0.1,1.6,0.1,2.4,1.5,2.6l1,0.1c0.2,0.2,0.2,0.7-0.1,0.8c-1.2-0.1-2.5-0.1-3.6-0.1c-1.1,0-2.4,0-3.7,0.1c-0.2-0.2-0.2-0.6-0.1-0.8    l0.9-0.1c1.5-0.2,1.5-0.7,1.5-2.7l-0.1-13.2h-0.1c-0.2,0.3-1.4,2.9-2,4.1l-2.7,5.5c-1.4,2.8-2.7,5.8-3.3,7.2    c-0.1,0.1-0.2,0.1-0.3,0.1c-0.1,0-0.2,0-0.3-0.1c-0.5-1.7-2-4.8-2.7-6.3l-2.7-6.1c-0.6-1.5-1.3-3.1-1.9-4.6h-0.1    c-0.1,2-0.2,3.8-0.3,5.6c-0.1,1.9-0.2,4.7-0.2,7.4c0,2.3,0.2,2.8,1.4,2.9l1.2,0.1c0.2,0.2,0.2,0.7,0,0.8c-1-0.1-2.2-0.1-3.4-0.1    c-1,0-2.1,0-3.1,0.1c-0.2-0.2-0.2-0.6-0.1-0.8l0.7-0.1c1.3-0.2,1.7-0.4,1.9-2.6c0.2-2.1,0.3-3.8,0.5-7c0.2-2.6,0.3-5.3,0.3-7.1    c0.1-2-0.2-2.5-2-2.7l-0.5-0.1c-0.2-0.2-0.1-0.7,0.1-0.8c0.9,0.1,1.6,0.1,2.4,0.1c0.7,0,1.5,0,2.5-0.1c-0.1,1.2,0.6,3.2,1.6,5.2    L200.9,78.7z"></path>
		<path class="st0" d="M235.2,74.2c0-2-0.1-5.6-0.6-6.6c-0.2-0.4-0.8-0.6-1.5-0.7l-0.8-0.1c-0.2-0.2-0.1-0.6,0.1-0.8    c1.2,0.1,2.3,0.1,3.5,0.1c1.3,0,2.1,0,3.2-0.1c0.2,0.2,0.2,0.6,0.1,0.8l-0.7,0.1c-0.8,0.1-1.3,0.3-1.5,0.8c-0.4,1-0.4,4.7-0.4,6.5    v3.6c0,2.8-0.4,5.7-2.1,7.6c-1.3,1.5-3.6,2.3-5.8,2.3c-2.1,0-4.2-0.4-5.7-1.7c-1.6-1.4-2.4-3.7-2.4-7.5v-7.5c0-3.3-0.1-3.8-1.8-4    l-0.8-0.1c-0.2-0.1-0.1-0.7,0.1-0.8c1.5,0.1,2.6,0.1,3.8,0.1c1.2,0,2.2,0,3.7-0.1c0.2,0.1,0.2,0.6,0.1,0.8l-0.7,0.1    c-1.8,0.2-1.8,0.7-1.8,4v6.8c0,5.1,1.5,8.5,6.2,8.5c4.4,0,6.1-3.6,6.1-8.4V74.2z"></path>
		<path class="st0" d="M259.7,81.7c0,0.9,0,4.7,0.1,5.5c-0.1,0.2-0.2,0.3-0.6,0.3c-0.4-0.5-1.2-1.6-3.9-4.8l-7.1-8.4    c-0.8-1-2.9-3.6-3.5-4.3h-0.1c-0.1,0.4-0.2,1.1-0.2,2.1v6.9c0,1.5,0,5.6,0.5,6.6c0.2,0.3,0.8,0.5,1.6,0.6l0.9,0.1    c0.2,0.3,0.2,0.6-0.1,0.8c-1.4-0.1-2.4-0.1-3.6-0.1c-1.3,0-2.1,0-3.2,0.1c-0.2-0.2-0.2-0.6-0.1-0.8l0.8-0.1    c0.7-0.1,1.2-0.3,1.3-0.6c0.4-1.1,0.4-5,0.4-6.5V70c0-0.9,0-1.6-0.7-2.3c-0.4-0.4-1.2-0.7-1.9-0.8l-0.5-0.1    c-0.2-0.2-0.2-0.7,0.1-0.8c1.3,0.1,2.9,0.1,3.4,0.1c0.5,0,1,0,1.4-0.1c0.6,1.6,4.2,5.8,5.2,7l2.9,3.4c2.1,2.4,3.6,4.2,5,5.7h0.1    c0.1-0.2,0.1-0.7,0.1-1.3v-6.8c0-1.5,0-5.6-0.6-6.6c-0.2-0.3-0.7-0.5-1.9-0.6l-0.5-0.1c-0.2-0.2-0.2-0.7,0.1-0.8    c1.4,0.1,2.4,0.1,3.6,0.1c1.3,0,2.1,0,3.1-0.1c0.2,0.2,0.2,0.6,0.1,0.8l-0.4,0.1c-1,0.2-1.6,0.4-1.7,0.7c-0.5,1.1-0.5,5.1-0.5,6.5    V81.7z"></path>
		<path class="st0" d="M267.2,71c0-3.4-0.1-3.9-1.9-4.1l-0.8-0.1c-0.2-0.1-0.1-0.7,0.1-0.8c1.5,0.1,2.6,0.1,3.8,0.1    c1.2,0,2.2,0,3.8-0.1c0.2,0.1,0.2,0.7,0.1,0.8l-0.8,0.1c-1.8,0.2-1.9,0.7-1.9,4.1v11.3c0,3.4,0.1,3.8,1.9,4l0.8,0.1    c0.2,0.1,0.1,0.7-0.1,0.8c-1.5-0.1-2.6-0.1-3.8-0.1c-1.3,0-2.3,0-3.8,0.1c-0.2-0.1-0.2-0.6-0.1-0.8l0.8-0.1c1.8-0.2,1.9-0.7,1.9-4    V71z"></path>
		<path class="st0" d="M284.7,82.4c0,3.3,0.1,3.8,1.8,4l1,0.1c0.2,0.1,0.1,0.7-0.1,0.8c-1.7-0.1-2.8-0.1-4-0.1c-1.2,0-2.3,0-4.2,0.1    c-0.2-0.1-0.2-0.6,0-0.8l1.1-0.1c1.7-0.2,1.9-0.6,1.9-4V68.2c0-1,0-1-0.9-1h-1.7c-1.3,0-3,0.1-3.7,0.8c-0.7,0.7-1,1.4-1.4,2.2    c-0.2,0.2-0.7,0-0.8-0.2c0.5-1.4,0.9-3.4,1.2-4.7c0.1-0.1,0.5-0.1,0.6,0c0.2,1,1.2,1,2.6,1h12.3c1.6,0,1.9-0.1,2.4-0.9    c0.2-0.1,0.5,0,0.5,0.1c-0.3,1.3-0.5,3.9-0.5,4.8c-0.1,0.3-0.6,0.3-0.8,0.1c-0.1-0.8-0.3-2-0.8-2.3c-0.7-0.5-1.9-0.8-3.5-0.8h-2.2    c-0.9,0-0.9,0-0.9,1.1V82.4z"></path>
		<path class="st0" d="M304.2,82.3c0,3.4,0.2,3.9,1.8,4l1.2,0.1c0.2,0.2,0.1,0.7-0.1,0.8c-1.9-0.1-2.9-0.1-4.1-0.1    c-1.3,0-2.4,0-4,0.1c-0.2-0.1-0.2-0.6-0.1-0.8l0.9-0.1c1.8-0.2,1.8-0.6,1.8-4v-1.6c0-1.7-0.1-2.2-1-3.9l-3.6-7.3    c-1-2.1-1.5-2.2-2.4-2.4l-0.9-0.2c-0.2-0.2-0.2-0.7,0.1-0.8c1,0.1,2.1,0.1,3.5,0.1c1.4,0,2.5,0,3.3-0.1c0.3,0.1,0.3,0.6,0.1,0.8    l-0.4,0.1c-1.1,0.2-1.3,0.3-1.3,0.6c0,0.3,0.8,2.1,0.9,2.4c1.1,2.3,2.2,4.8,3.4,7c0.9-1.7,1.9-3.5,2.9-5.3c0.9-1.6,2-3.8,2-4.2    c0-0.2-0.5-0.4-1.3-0.5l-0.5-0.1c-0.2-0.2-0.2-0.7,0.1-0.8c1.1,0.1,2,0.1,2.9,0.1c0.9,0,1.8,0,2.8-0.1c0.2,0.2,0.3,0.6,0.1,0.8    l-0.9,0.2c-1.6,0.3-2.5,2.3-4,5l-1.9,3.4c-1.3,2.4-1.4,2.7-1.4,5.1V82.3z"></path>
		<path class="st0" d="M325.5,63.7c2.8-2.3,6.3-3.4,10.3-3.4c2.1,0,4.9,0.4,6.7,1c0.5,0.1,0.7,0.2,1.1,0.2c0,0.9,0.2,3.4,0.5,5.8    c-0.2,0.3-0.8,0.3-1,0.1c-0.6-2.7-2.3-5.8-7.8-5.8c-5.8,0-10.8,3.8-10.8,12c0,8.3,5.1,12.9,11.3,12.9c4.9,0,7.1-3.3,7.9-5.7    c0.3-0.2,0.8-0.1,1,0.2c-0.3,2.1-1.3,4.7-1.8,5.4c-0.5,0.1-0.9,0.2-1.3,0.4c-0.8,0.3-3.6,0.9-6,0.9c-3.4,0-6.7-0.7-9.5-2.7    c-3-2.2-5.4-5.8-5.4-10.9C320.7,69.8,322.6,66.1,325.5,63.7z"></path>
		<path class="st0" d="M346.8,76.9c0-6.3,4.6-11.2,10.8-11.2c7,0,10.5,5.3,10.5,10.9c0,6.4-4.7,11-10.5,11    C350.9,87.6,346.8,82.6,346.8,76.9z M365.2,77.6c0-5.2-2.2-10.9-8-10.9c-3.2,0-7.3,2.2-7.3,9.2c0,4.7,2.2,10.8,8.2,10.8    C361.7,86.6,365.2,83.8,365.2,77.6z"></path>
		<path class="st0" d="M371.7,71c0-3.3-0.1-3.8-2-4l-0.8-0.1c-0.2-0.1-0.1-0.7,0.1-0.8c1.7,0.1,2.7,0.1,4,0.1c1.2,0,2.2,0,3.7-0.1    c0.2,0.1,0.2,0.7,0.1,0.8L376,67c-1.8,0.2-1.9,0.7-1.9,4v11c0,2,0.1,2.8,0.6,3.4c0.3,0.3,0.9,0.7,3.3,0.7c2.6,0,3.2-0.1,3.7-0.4    c0.6-0.4,1.4-1.5,2-3.1c0.2-0.2,0.8,0,0.8,0.2c0,0.3-0.9,3.6-1.3,4.4c-1.5-0.1-4.4-0.1-7.6-0.1h-2.8c-1.3,0-2.2,0-4,0.1    c-0.2-0.1-0.2-0.6-0.1-0.8l0.9-0.1c1.8-0.2,1.8-0.6,1.8-4V71z"></path>
		<path class="st0" d="M388.5,71c0-3.3-0.1-3.8-2-4l-0.8-0.1c-0.2-0.1-0.1-0.7,0.1-0.8c1.7,0.1,2.7,0.1,4,0.1c1.2,0,2.2,0,3.7-0.1    c0.2,0.1,0.2,0.7,0.1,0.8l-0.7,0.1c-1.8,0.2-1.9,0.7-1.9,4v11c0,2,0.1,2.8,0.6,3.4c0.3,0.3,0.9,0.7,3.3,0.7c2.6,0,3.2-0.1,3.7-0.4    c0.6-0.4,1.4-1.5,2-3.1c0.2-0.2,0.8,0,0.8,0.2c0,0.3-0.9,3.6-1.3,4.4c-1.5-0.1-4.4-0.1-7.6-0.1h-2.8c-1.3,0-2.2,0-4,0.1    c-0.2-0.1-0.2-0.6-0.1-0.8l0.9-0.1c1.8-0.2,1.8-0.6,1.8-4V71z"></path>
		<path class="st0" d="M405.3,71c0-3.3-0.1-3.8-1.9-4l-0.5-0.1c-0.2-0.1-0.1-0.7,0.1-0.8c1.3,0.1,2.3,0.1,3.6,0.1h5.7    c1.9,0,3.7,0,4.1-0.1c0.2,0.5,0.4,2.8,0.5,4.2c-0.1,0.2-0.6,0.3-0.8,0.1c-0.5-1.5-0.7-2.6-2.3-3c-0.6-0.2-1.6-0.2-2.9-0.2h-2.2    c-0.9,0-0.9,0.1-0.9,1.3v6.3c0,0.9,0.1,0.9,1,0.9h1.8c1.3,0,2.2-0.1,2.6-0.2c0.4-0.1,0.6-0.3,0.7-1.1l0.2-1.3    c0.2-0.2,0.7-0.2,0.8,0c0,0.8-0.1,2-0.1,3.2c0,1.1,0.1,2.3,0.1,3c-0.1,0.2-0.6,0.2-0.8,0l-0.3-1.2c-0.1-0.6-0.3-1-0.9-1.2    c-0.4-0.1-1.2-0.2-2.3-0.2h-1.8c-0.9,0-1,0-1,0.9v4.5c0,1.7,0.1,2.8,0.6,3.3c0.4,0.4,1,0.7,3.7,0.7c2.3,0,3.2-0.1,3.9-0.5    c0.5-0.3,1.4-1.4,2.2-3.1c0.2-0.2,0.6-0.1,0.8,0.2c-0.2,1.1-1,3.5-1.4,4.4c-2.7-0.1-5.4-0.1-8.1-0.1h-2.7c-1.3,0-2.3,0-4.1,0.1    c-0.2-0.1-0.2-0.6-0.1-0.8l1-0.1c1.7-0.2,1.9-0.6,1.9-4V71z"></path>
		<path class="st0" d="M438.8,83.9c0,1.3,0.2,2,0.7,2.2c0.1,0.1,0.1,0.3,0,0.4c-0.4,0-0.9,0.1-1.5,0.3c-1.6,0.4-3.8,0.8-5.4,0.8    c-3.6,0-6.9-1-9.3-3.5c-1.8-1.9-2.8-4.4-2.8-7.2c0-2.7,0.9-5.4,2.7-7.5c2-2.2,5-3.7,9.6-3.7c1.7,0,3.3,0.3,3.9,0.5    c0.6,0.1,1.5,0.3,1.9,0.3c0,1,0.2,2.7,0.5,4.6c-0.1,0.3-0.6,0.3-0.8,0.1c-0.9-3.4-3.1-4.5-6.2-4.5c-5.9,0-8.5,4.4-8.5,9.1    c0,6.1,3,10.9,9.1,10.9c1.9,0,3-0.4,3.3-0.9c0.2-0.2,0.3-0.8,0.3-1.8v-1.3c0-2.7-0.1-2.8-2-3.1l-1.3-0.2c-0.2-0.1-0.2-0.7,0-0.8    c0.9,0.1,2.6,0.1,4.3,0.1c1.2,0,2.2,0,3.2-0.1c0.2,0.1,0.2,0.6,0,0.8l-0.5,0.1c-1.3,0.2-1.3,1-1.3,2.7V83.9z"></path>
		<path class="st0" d="M445.7,71c0-3.3-0.1-3.8-1.9-4l-0.5-0.1c-0.2-0.1-0.1-0.7,0.1-0.8c1.3,0.1,2.3,0.1,3.6,0.1h5.7    c1.9,0,3.7,0,4.1-0.1c0.2,0.5,0.4,2.8,0.5,4.2c-0.1,0.2-0.6,0.3-0.8,0.1c-0.5-1.5-0.7-2.6-2.3-3c-0.6-0.2-1.6-0.2-2.9-0.2h-2.2    c-0.9,0-0.9,0.1-0.9,1.3v6.3c0,0.9,0.1,0.9,1,0.9h1.8c1.3,0,2.2-0.1,2.6-0.2c0.4-0.1,0.6-0.3,0.7-1.1l0.2-1.3    c0.2-0.2,0.7-0.2,0.8,0c0,0.8-0.1,2-0.1,3.2c0,1.1,0.1,2.3,0.1,3c-0.1,0.2-0.6,0.2-0.8,0l-0.3-1.2c-0.1-0.6-0.3-1-0.9-1.2    c-0.4-0.1-1.2-0.2-2.3-0.2h-1.8c-0.9,0-1,0-1,0.9v4.5c0,1.7,0.1,2.8,0.6,3.3c0.4,0.4,1,0.7,3.7,0.7c2.3,0,3.2-0.1,3.9-0.5    c0.5-0.3,1.4-1.4,2.2-3.1c0.2-0.2,0.6-0.1,0.8,0.2c-0.2,1.1-1,3.5-1.4,4.4c-2.7-0.1-5.4-0.1-8.1-0.1H447c-1.3,0-2.3,0-4.1,0.1    c-0.2-0.1-0.2-0.6-0.1-0.8l1-0.1c1.7-0.2,1.9-0.6,1.9-4V71z"></path>
		<path class="st0" d="M466.4,87.6c-2.6,0-4.2-0.8-4.7-1.2c-0.4-0.7-0.8-2.9-0.8-4.4c0.2-0.2,0.6-0.3,0.7-0.1    c0.5,1.6,1.7,4.7,5.2,4.7c2.6,0,3.8-1.7,3.8-3.6c0-1.4-0.3-2.9-2.5-4.4l-2.9-2c-1.5-1-3.3-2.8-3.3-5.4c0-3,2.2-5.4,6.2-5.4    c0.9,0,2,0.2,2.8,0.4c0.4,0.1,0.8,0.2,1.1,0.2c0.3,0.8,0.5,2.5,0.5,3.9c-0.1,0.2-0.6,0.3-0.8,0.1c-0.4-1.5-1.2-3.6-4.1-3.6    c-3,0-3.6,2.1-3.6,3.5c0,1.8,1.5,3.2,2.6,3.9l2.4,1.6c1.9,1.2,3.8,3.1,3.8,6.1C472.9,85.2,470.3,87.6,466.4,87.6z"></path>
	</g>
	<g>
		<path class="st0" d="M65,70c-1.3-0.6-2.4-1.5-3.1-2.7H39.3c-0.7,1.2-1.8,2.1-3.1,2.7v11.2c1.9,1.9,3.8,3.8,5.5,5.5V73.1    c0-0.6,0.5-1.1,1.1-1.1c0.6,0,1.1,0.5,1.1,1.1v15.9c2.4,2.4,4.3,4.3,5.5,5.5V73c0-0.6,0.5-1.1,1.1-1.1c0.6,0,1.1,0.5,1.1,1.1v21.4    c1.1-1.1,3.1-3.1,5.5-5.5V73c0-0.6,0.5-1.1,1.1-1.1c0.6,0,1.1,0.5,1.1,1.1v13.7c1.7-1.7,3.5-3.5,5.5-5.5V70z"></path>
		<path class="st0" d="M70.5,63.7c-0.6,0-1.1-0.5-1.1-1.2c0-1.5-1.2-2.7-2.6-2.7c-2,0-3.6,1.6-3.7,3.6c0,2.6,2.1,4.8,4.7,4.9    c3.5,0,6.3-2.7,6.4-6.2c0.1-4.5-3.6-8.2-8-8.2H35c-4.5,0.1-8.1,3.8-8,8.2c0,3.5,2.9,6.3,6.4,6.2c2.6,0,4.8-2.2,4.7-4.9    c0-2-1.7-3.6-3.7-3.6c-1.5,0-2.7,1.2-2.6,2.7c0,0.6-0.5,1.2-1.1,1.2c-0.6,0-1.1-0.5-1.2-1.1c0-2.7,2.1-5,4.9-5    c3.2,0,5.9,2.6,6,5.8c0,0.5-0.1,1-0.2,1.5H61c-0.1-0.5-0.2-1-0.2-1.5c0-3.2,2.7-5.9,6-5.8c1.3,0,2.6,0.5,3.5,1.5    c0.9,1,1.4,2.2,1.4,3.5C71.6,63.2,71.1,63.7,70.5,63.7z"></path>
		<path class="st0" d="M50.6,6.6L3.3,53.9l47.3,47.3l47.3-47.3L50.6,6.6z M5.7,53.9L50.6,9l44.9,44.9L50.6,98.8L5.7,53.9z"></path>
		<path class="st0" d="M50.6,12.2c-1.5,1.5-40.2,40.2-41.7,41.7c0.9,0.9,13.8,13.8,25,25v-8.3c-0.2,0-0.4,0-0.5,0    c-4.7,0.1-8.6-3.7-8.7-8.5c-0.1-5.7,4.5-10.5,10.3-10.5h31.1c5.7,0.1,10.4,4.8,10.3,10.5c-0.1,4.7-3.9,8.5-8.7,8.5    c-0.2,0-0.4,0-0.5,0V79c11.3-11.3,24.2-24.2,25.1-25.1C90.8,52.4,52.1,13.7,50.6,12.2z M54.2,45.3c0,0-1.5,1.3-3.6-1.1    c-1.2-1.3-4.3-5.1-2.1-14.5c0,0,0,2.9,3.1,7.6c2.9,4.4,3.2,5.9,3.2,5.9C55.2,44.7,54.2,45.3,54.2,45.3z M55.2,50.5    c0,0,5-4.4,0.7-11.3c-4.5-7.4-6.5-12.5-6-16c0,0-15.1,7.7-5,23.4c0,0-17.4-13.8,6.6-29.6c0,0,0.2,9.2,5,15.9    C64.1,43.7,61.6,48.4,55.2,50.5z"></path>
	</g>
</g>
</svg>
